<?xml version="1.0" encoding="UTF-8"?>
<svg id="Layer_1" data-name="Layer 1" xmlns="http://www.w3.org/2000/svg" viewBox="0 0 500 448.12" width="500" height="448.12">
  <defs>
    <style>
      .cls-1 {
        fill: #47121d;
      }
    </style>
  </defs>
  <path class="cls-1" d="M274.46,162.74c-5.46,18.51-27.3,26.73-44.18,18-17.55-8.79-23.45-31.52-12.05-47.57,4.03-5.58,9.86-9.84,16.49-11.61,1.28-.39,2.61-.57,3.91-.78-1.22.54-2.46.95-3.6,1.6-12.54,6.13-19.83,20.28-16.75,33.97,2,9.39,8.9,17.45,17.85,20.92,14.49,5.77,30.86-1,38.32-14.53h0ZM352.07,218.59c-1.65-6.5-4.56-12.34-8.35-17.9-14.67-21.55-50.83-62.54-69.61-82.41l-35.21-38.78c-.33-.35-1.18-.51-1.43-.25-.29.3-.22.93.21,1.4,21.1,23.03,60.73,68.29,81,92.14,7.81,9.2,15.43,18.42,22.56,28.11,6,8.16,9.32,17.4,10.45,27.5l1.51,13.5c1.36,7.31,4.06,13.94,8.05,20.21,2.87,4.11,5.71,8.11,9.67,11.36-10.05-12.96-15.9-24.02-16.98-40.64-.32-4.88-.68-9.51-1.88-14.23ZM241.92,97.67l1.22-.98,15.58,18.32,4.11-.95c.55-.15,1.33.58,1.33,1.14,0,1.95-1.43.73-3.82,2.02l11.85,14.8,4.63-1.12c.5-.12,1.17.73,1.06,1.31-.29,1.6-2.06.34-4.43,1.58l12.18,14.64,5.12-1.39c.54-.15,1.42.66,1.43,1.24.04,2.16-2.51.83-5.14,2.43l21.92,24.74,16.85,18.95c3.91,4.39,7.15,8.94,10.08,14,5.02,8.66,6.98,18.2,5.31,28.13-.83,4.96-2.34,9.55-3.75,14.38l-3.66,12.51c-2.54,10.51-3.15,23.77,1.49,33.48,8.5,17.78,26.8,29.21,46.72,27.47,19.15-1.67,35.05-13.1,45.44-28.82l.32-.49c.07-.11-.13-.31-.24-.23l-.71.49-3.88,1.68c-4.2,1.82-8.67,1.61-12.99.23l-2.38-.76c-.56-.3-.09-.44.37-.28,10.76,2.86,23.36-2.36,26.28-13.32,2.37-8.88.38-18.42-3.29-26.85-8.41-19.34-24.6-33.37-43.64-41.86-5.03-2.24-9.31-5.26-13.44-8.8l-7.48-7.14-5.36-5.29-.44.39,9.91,12.02.3,1.85,10.45,11.65,32.72,36.97.53.62c.09.1.26-.03.55-.24.55-.62,2.24-1.55,2.89-.64l2.04,2.88c.74,1.04.11,1.76-.74,2.34l-25.9,17.87c-.85.58-1.83.02-2.24-.66l-1.68-2.77c-.43-.71.08-1.7.7-2.11l4.46-3-17.58-28.06-23.09-35.87-6.17-9.2-29.78-33.85-38.28-41.79-21.64-23.29,8.17-5.97-7.7-7.8,1.95-1.57c6.29,6.25,12.33,12.64,18.46,19.15l18.54,19.66,26.55,28.44,25.39,27.48,21.76,23.13c3.66,3.89,7.87,6.93,12.39,9.65l7.1,3.39c11.43,5.46,21.84,12.66,30.1,22.32,10.1,11.81,18.68,28.33,16.34,44.02-.87,5.09-2.98,9.56-6.78,12.95l-6.97,10.76c-17.13,22.44-48.7,30.94-72.71,14.54-9.35-6.38-16.71-15.45-20.88-26.03-3.3-8.36-3.95-17.19-3.05-26.04.65-6.41,2.35-12.26,4.12-18.39l3.47-12.08c1.86-8.23.78-16.45-3.44-23.78l-8.63-13.35c-6.53-10.1-14.06-19.2-21.42-28.74l-15.09-18.15c-1.16.17-1.15.54-1.7,1.6l-3.31,1.89c-.3,1.95-1.57,3.51-3.19,4.03-1.88.6-3.83-.21-4.98-1.75-3.59-4.79-2.06-11.15,1.46-12.04,3.47-.88,4.03,2.21,5.98,1.82,1.43-.29,2.13.47,3.54,1.2l-11.24-13.75c-1.25.02-1.41.8-2.17,1.7-.81.96-2.4,1.63-3.67,2.25-.24,1.97-1.16,3.55-2.79,4.27-1.78.78-3.76.36-5.13-1.14-2.6-2.85-3.23-7.23-1.25-10.58.71-1.2,2.09-1.98,3.31-2.05,1.32-.07,2.53.69,3.48,1.76l2.01.19c1.3.79,2.57,1.49,4.23,1.28l-11.45-14.62c-1.34.22-2.25,1.04-3.04,2.23l-3.17,1.76c-.31,3.2-3.02,5.61-6.19,4.76-1.94-.52-3.09-2.27-3.92-3.98-1.02-4.03.12-9.9,3.79-10.21,1.54-.13,2.97.63,4.04,1.91l2.58.13c1.17,1,2.28,1.52,4.04,1.16l-7.08-8.38c-2.29-2.71-4.66-5.11-6.81-7.86M352.71,184.73l5.59,6.67c.16.19.66-.17.74-.4l-6.33-6.27ZM262.29,100.84l6.9-5.21-1.52-1.82-7.34,4.96,1.96,2.07ZM267.49,106.09l6.68-5.32-4.29-4.46c-2.19,2.05-4.28,3.64-6.79,5.19l4.4,4.59ZM275.87,114.92l6.61-5.44-6.86-7.09-6.49,5.58,6.73,6.96ZM285.38,125.12l6.7-5.44-7.78-8.23-6.83,5.3,7.9,8.36ZM293.82,134.3l6.77-5.43-6.67-7.2-6.88,5.3,6.78,7.33ZM299.3,140.37l6.9-5.56-3.86-3.96-6.9,5.27,3.86,4.25ZM305.58,146.96l7.02-5.48-5.2-5.53-6.91,5.64,5.08,5.38ZM312.87,154.83l7.04-5.38-5.83-6.24-7.01,5.44,5.8,6.18ZM319.82,162.55l7.48-5.61-6-5.99-7.13,5.37,5.65,6.23ZM327.24,170.67l5.83-4.47,1.77-1.28-6.3-6.52-7.23,5.76,5.94,6.51ZM335.36,179.7l7.76-5.71-7.24-7.64-7.35,5.74,6.83,7.62ZM343.4,188.84l7.88-6.09-6.88-7.21-7.74,5.83,6.74,7.47ZM351.01,197.2l6.68-5.36-6-6.96-6.99,5.52,6.31,6.8ZM356.27,203.02l7.11,9.49,2.7-1.58-3.06-3.91-7.63-9.61-2.1,1.67,2.98,3.93ZM400.61,265.95l-17.38-24.35-19.67-27.34-2.5.9,5.64,8.95,28.59,45.47,5.31-3.64ZM406.86,261.72l-30.09-37.7-9.59-11.78-2.67,1.54,15.93,22.37,20.79,29.42,5.63-3.86ZM370.39,208.17l-2.46,3.38,15.42,18.96,24.18,30.77,6.21-4.23-25.08-28.39-18.26-20.49ZM359.29,194.31l-3.07,2.44,10.69,13.48,2.02-2.69c.35-.42.23-1.4-.16-1.87l-9.48-11.35ZM248.12,115.01c-.57-.6-1.71-.93-2.41-.68-2.61.93-3.11,6.26.11,9.58.64.66,1.91.9,2.69.61,2.34-.85,2.86-6.04-.39-9.51ZM262.23,131.89c-.5-.53-1.71-.91-2.31-.73-2.52.76-3.2,6.27.35,9.57.42.39,1.52.68,2.02.59,2.46-.46,3.29-5.87-.05-9.42ZM274.16,147.21c-2.42.86-3.07,6.64.73,9.74,1.13.92,2.79.54,3.4-.91,1.95-4.67-1.86-9.63-4.13-8.82ZM260.47,82.7l-20.11-19.58c-13.19,1.9-16.07,13.59-16.07,13.59l17.63,20.95,1.22-.98-16.43-20.35c3.03-9.4,13.66-11.13,13.66-11.13l18.16,19.06M259.9,64.8c.18.35.22.8.39,1.3,0,0-.14,3.31-3.73,2.98l-2.65,3.48-6.3,8.52s-1.7.39-1.27-1.34l6.3-8.52v-1.63l1.06-2.48s-1.94-6.63,4.67-3.98c0,0,.86.32,1.54,1.67ZM257.83,64.21c-.98-.52-2.57-.52-2.98.25-.4.76-.08,2.21.9,2.73.98.52,2.68.45,3.09-.31.4-.76-.03-2.15-1.01-2.67ZM268.32,72.1c.18.35.22.8.39,1.3,0,0-.14,3.31-3.73,2.98l-2.65,3.48-6.3,8.52s-1.7.39-1.27-1.34l6.3-8.52v-1.63l1.06-2.48s-1.64-5.81,4.67-3.98c0,0,.86.32,1.54,1.67ZM266.25,71.51c-.98-.52-2.57-.52-2.98.25-.4.76-.08,2.21.9,2.73.98.52,2.68.45,3.09-.31.4-.76-.03-2.15-1.01-2.67ZM280.85,287.78l23.26.03v1.13s-23.26-.03-23.26-.03v-1.13ZM280.86,282.91l23.24.08v-1.04s-23.24-.08-23.24-.08v1.04ZM280.89,294.76l23.22.03v-1.08s-23.22-.03-23.22-.03v1.08ZM126.3,288.91l23.26.03v-1.13s-23.26-.03-23.26-.03v1.13ZM126.31,282.91l23.24.08v-1.04s-23.24-.08-23.24-.08v1.04ZM126.34,294.76l23.22.03v-1.08s-23.22-.03-23.22-.03v1.08ZM146.95,266.22c11.8,0,21.78-7.35,21.78-19.01,0-9.53-6.4-15.02-15.43-20.28-7.53-4.4-12.25-8.03-12.25-14.02,0-4.22,2.54-6.58,5.9-6.58,6.58,0,12.84,9.53,15.25,16.43.05.14.09.18.23.18s.23-.05.23-.23l-1.32-20.37c0-.18-.09-.23-.23-.23-.18,0-.23.09-.23.23.05.45.09.95.09,1.54,0,2.72-.86,3.9-3.09,3.9-2.86,0-5.9-1.91-11.34-1.91-8.44,0-14.02,5.4-14.02,12.34,0,8.62,6.72,13.43,16.34,19.28,6.62,4.04,10.07,7.35,10.07,14.61,0,7.94-6.04,13.25-14.48,13.25-7.67,0-13.98-5.13-13.98-10.84,0-3.18,1.63-4.49,4.58-5.26,3.86-1,6.04-2.9,6.04-6.9,0-3.09-2.13-5.63-5.94-5.63-4.95,0-8.76,4.63-8.76,11.57,0,9.17,7.76,17.92,20.56,17.92ZM184.83,265.59h19.97c.14,0,.23-.09.23-.23s-.09-.23-.23-.23h-.59c-2.86,0-3.81-2.31-3.81-6.26v-16.2c0-1.59.82-1.59,2.18-1.59h4.58l16.47,24.37c.05.09.18.14.27.14h16.79c.14,0,.23-.09.23-.23s-.09-.23-.23-.23h-.09c-2.63,0-6.94-5.81-9.26-8.98l-12.16-16.88c7.12-2.59,12.02-8.03,12.02-16.47,0-14.07-13.61-16.52-23.69-16.52-3.09,0-9.89.23-12.71.23h-9.98c-.14,0-.23.09-.23.23s.09.23.23.23h.59c2.86,0,3.81,2.31,3.81,6.26v45.65c0,3.95-.95,6.26-3.81,6.26h-.59c-.14,0-.23.09-.23.23s.09.23.23.23ZM207.07,240.63h-4.4c-1.45,0-2.27-.32-2.27-2v-26.36c0-3.54,2.04-5.54,6.22-5.54h1.32c6.62,0,11.43,6.17,11.43,16.79s-5.13,17.11-12.3,17.11ZM251.94,265.59h19.97c.14,0,.23-.09.23-.23s-.09-.23-.23-.23h-.59c-2.86,0-3.81-2.31-3.81-6.26v-45.65c0-3.95.95-6.26,3.81-6.26h.59c.14,0,.23-.09.23-.23s-.09-.23-.23-.23h-19.97c-.14,0-.23.09-.23.23s.09.23.23.23h.59c2.86,0,3.81,2.31,3.81,6.26v45.65c0,3.95-.95,6.26-3.81,6.26h-.59c-.14,0-.23.09-.23.23s.09.23.23.23ZM288.42,265.59h16.88c.14,0,.23-.09.23-.23s-.09-.23-.23-.23h-.09c-2.27,0-7.17-5.9-9.71-8.98l-18.33-22.42,9.48-13.48c5.22-7.4,11.25-13.3,15.75-13.3.09,0,.18-.09.18-.23s-.09-.23-.23-.23h-19.42c-.14,0-.23.09-.23.23s.09.23.23.23h.14c3.31,0,5.76,2.36,5.76,5.99,0,2.09-.82,4.58-2.72,7.31l-15.47,22.01c-.23.32-.27.41-.27.5s.05.18.23.41l17.38,22.14c.18.23.27.27.45.27ZM166.95,110.35c-1.05,1.97-2.49,3.73-4.19,5.18-1.54,1.32-3.2,2.81-5.33,2.95,1.79-1.71,3.87-3.11,5.6-4.87,2.52-2.57,4.54-7.16,2.36-10.57-1.52-2.38-4.79-2.92-6.82-4.88-.4-.39-.77-.85-.89-1.4-.33-1.47,1.3-3.7,2.81-3.82,1.89-.16,4.18,2.14,5.28,3.46,3.07,3.71,3.37,9.83,1.18,13.95ZM165.3,99.25s-1.52-5.46-4.32-4.11c0,0-4.03,2.3,4.32,4.11ZM155.75,111.87c-.63,2.41-1.24,5.06-3.69,6.88.56-2.95,1.77-5.85,2.21-8.81.64-4.3-1.22-10-7.08-11.3-4.08-.91-8.56,1.22-12.87,1.1-.86-.02-1.73-.15-2.4-.54-1.79-1.04-1.9-4.33-.19-5.65,2.15-1.65,7.09-1.43,9.67-1.13,7.21.85,13.35,6.07,14.56,11.49.58,2.6.5,5.31-.2,7.96ZM143.5,95.33s-6.98-3.65-9.12-.21c0,0-2.72,5.26,9.12.21ZM147,120.66c-1.39-2.66-2.25-5.69-3.74-8.28-2.17-3.77-7.17-7.08-12.57-4.46-3.76,1.82-5.95,6.27-9.4,8.85-.69.51-1.45.96-2.22,1.07-2.05.29-4.18-2.21-3.65-4.31.66-2.63,4.67-5.53,6.88-6.89,6.18-3.81,14.23-3.53,18.54-.04,2.07,1.68,3.69,3.86,4.78,6.36,1,2.28,2.17,4.74,1.38,7.69ZM125.75,107.62s-7.74,1.47-7.27,5.5c0,0,1.13,5.82,7.27-5.5ZM327.56,313.09c-17.77,36.72-52.45,62.41-92.41,70.1-21.78,4.2-44.19,2.92-65.55-3.5-50.46-15.16-89.89-55.41-102.83-106.68-7.41-29.35-5.22-57.01,6.68-84.8,7.88-18.38,20.13-34.38,35.91-46.6,11.98-9.28,26.4-16.45,41.77-18.32,0,0,.43-.07,1.18-.15l2.4-.11-.02-.09c.3-.02.61-.03.94-.05v.07s3.18-.11,3.18-.11c.32,0,.64.02.97.03v.04s2.74.15,2.74.15c1.52.15,3.11.4,4.68.76,12.87,2.7,23.16,11.51,25.34,24.48l-.42.67c-.1.17-.66-.04-.82-.17l-5.35-4.45c-5.14-3.69-11.64-4.67-17.73-3.85,4.14,1.19,7.88,3.49,9.11,7.62,1.15,3.88-.69,7.99-3.43,10.69-5.24-.39-9.84.83-14.58,2.61-8.41,3.15-16.84,2.32-21.54-5.86-2.15,1.11-3.96,2.23-5.91,3.68-12.06,9-22.03,20.34-29.25,33.66-9.26,17.09-14.23,36.04-14.65,55.58-.83,38.92,14.98,75.8,40.43,104.91,29.88,21.08,65.16,31.2,101.72,26.07,25.58-3.83,49.58-14.68,69.05-31.65,11.52-9.89,20.53-21.75,28.37-34.74ZM125.37,350.93c-8.33-10.34-15.79-20.76-21.78-32.57-8.78-17.3-14.39-35.83-16.17-55.24-2.38-24.48,2.35-49.1,14.02-70.71,8.44-15.61,20.59-28.7,35.55-38.36.83-.53,1.77.01,2.08.51,2.84,4.47,7.84,6.75,13.18,6.37,6.88-.49,12.84-4.89,20.63-4.12,2.68-5.03,2.02-10.22-2.82-12.97-3.04-1.73-6.24-2.1-9.98-2.43,9.55-5.44,21.69-5.14,29.8,2.92-1.91-5.51-5.49-10.09-10.51-13.32-11.02-7.11-25.91-6.25-38.23-2.1-24.98,8.41-45.22,28.66-57.43,51.73-12.85,24.29-17.29,52.1-12.9,79.27,5.88,35.85,25.93,68.52,54.56,91.01ZM177.2,159.1c6.73,1.81,16.02,4.76,22.59,7.11-.36-1.9-1.15-2.97-2.08-4.2l-10.74-13.38c-2.04-.67-5.54-.29-6.25,1.84-.58,1.75-.17,4.14-1.31,5.47l-2.21,3.16ZM169.59,291.48h.66c.39,0,.7-.14.91-.43l2.8-5.01c.2-.33.36-.63.5-.89l.09.02v9.44c0,.49.46.73,1.37.73h.66c.91,0,1.37-.24,1.37-.73v-14.59c0-.49-.46-.73-1.37-.73h-1.19c-.73,0-1.21.21-1.44.62l-3.85,6.75-.2.39-.23-.39-3.78-6.75c-.23-.41-.71-.62-1.44-.62h-1.21c-.91,0-1.37.24-1.37.73v14.59c0,.49.46.73,1.37.73h.66c.91,0,1.37-.24,1.37-.73v-9.44l.09-.02c.14.26.3.55.5.89l2.8,5.01c.21.29.52.43.91.43ZM198.12,295.46c2.1,0,3.72-.48,4.88-1.45,1.15-.96,1.73-2.32,1.73-4.07v-9.94c0-.49-.46-.73-1.37-.73h-.75c-.91,0-1.37.24-1.37.73v9.71c0,.81-.29,1.47-.88,1.98s-1.33.77-2.24.77-1.66-.26-2.23-.77c-.58-.52-.87-1.18-.87-1.98v-9.71c0-.49-.46-.73-1.37-.73h-.77c-.91,0-1.37.24-1.37.73v9.94c0,1.75.58,3.1,1.73,4.07,1.15.97,2.78,1.45,4.88,1.45ZM222.58,295.46c.9,0,1.73-.17,2.51-.5s1.41-.87,1.9-1.62c.49-.74.74-1.7.74-2.87,0-.96-.2-1.74-.6-2.36-.4-.62-.88-1.09-1.42-1.41-.55-.33-1.25-.67-2.12-1.04-.59-.26-1.04-.47-1.34-.63s-.56-.37-.77-.63c-.21-.26-.32-.58-.32-.98,0-.33.16-.63.47-.89s.86-.39,1.65-.39c.59,0,1.16.09,1.71.27.12.05.27.11.44.18.17.08.3.11.38.11.17,0,.35-.12.55-.35.2-.24.36-.51.5-.83.14-.32.2-.58.2-.8,0-.24-.17-.49-.5-.73-.36-.26-.86-.47-1.49-.63s-1.33-.24-2.11-.24c-.94,0-1.82.16-2.64.49-.82.33-1.49.84-1.99,1.53-.51.69-.76,1.55-.76,2.59,0,1.25.27,2.21.82,2.88.55.68,1.3,1.24,2.26,1.7l1.05.46c.87.35,1.49.66,1.88.95.39.28.58.66.58,1.15,0,.59-.21,1.01-.63,1.24-.42.24-.92.35-1.52.35-.53,0-1-.07-1.39-.2-.39-.14-.84-.33-1.32-.57-.33-.18-.55-.27-.64-.27-.15,0-.34.12-.57.36-.23.24-.43.52-.59.84-.17.32-.25.59-.25.82,0,.29.21.58.64.87.46.33,1.09.61,1.89.82.8.21,1.75.32,2.83.32ZM241.43,295.35h.8c.91,0,1.37-.25,1.37-.75v-14.59c0-.5-.46-.75-1.37-.75h-.8c-.91,0-1.37.25-1.37.75v14.59c0,.5.46.75,1.37.75ZM264.06,295.46c.71,0,1.48-.07,2.3-.22.82-.14,1.48-.36,1.98-.65.53-.3.8-.65.8-1.05,0-.15-.06-.39-.19-.72-.13-.33-.3-.62-.5-.88-.2-.26-.42-.39-.65-.39-.09,0-.26.06-.5.18-.47.21-.96.39-1.46.52-.5.14-1.09.2-1.78.2-2.6,0-3.9-1.73-3.9-5.2,0-1.72.32-3,.97-3.85.65-.85,1.64-1.28,2.97-1.28.64,0,1.19.05,1.64.16.46.11.84.23,1.16.36.32.14.5.21.55.21.18,0,.39-.13.63-.4.24-.27.44-.57.6-.91s.25-.62.25-.83c0-.26-.2-.5-.59-.73-.44-.26-1.06-.47-1.85-.63-.79-.16-1.57-.24-2.32-.24-5.07,0-7.61,2.7-7.61,8.11,0,2.81.61,4.88,1.83,6.21,1.22,1.33,3.11,1.99,5.66,1.99ZM133.78,322.68h.91c.59,0,.94-.16,1.05-.48l.91-2.78h5.38l.91,2.78c.11.32.53.48,1.28.48h1c.76,0,1.14-.17,1.14-.5,0-.12-.02-.26-.07-.41l-5.01-14.65c-.11-.32-.54-.48-1.3-.48h-1.19c-.74,0-1.18.16-1.3.48l-5.01,14.65c-.06.21-.09.35-.09.41,0,.33.46.5,1.39.5ZM137.63,316.41l1.34-4.06c.11-.26.19-.54.24-.85.05-.31.09-.51.1-.6h.09c.12.67.24,1.15.34,1.46l1.3,4.06h-3.42ZM165.36,322.81c.71,0,1.48-.07,2.3-.22.82-.14,1.48-.36,1.98-.65.53-.3.8-.65.8-1.05,0-.15-.06-.39-.19-.72-.13-.33-.3-.62-.5-.88-.2-.26-.42-.39-.65-.39-.09,0-.26.06-.5.18-.47.21-.96.39-1.46.52-.5.14-1.09.2-1.78.2-2.6,0-3.9-1.73-3.9-5.2,0-1.72.32-3,.97-3.85.65-.85,1.64-1.28,2.97-1.28.64,0,1.19.05,1.64.16.46.11.84.23,1.16.36.32.14.5.21.55.21.18,0,.39-.13.63-.4.24-.27.44-.57.6-.91s.25-.62.25-.83c0-.26-.2-.5-.59-.73-.44-.26-1.06-.47-1.85-.63-.79-.16-1.57-.24-2.32-.24-5.07,0-7.61,2.7-7.61,8.11,0,2.81.61,4.88,1.83,6.21,1.22,1.33,3.11,1.99,5.66,1.99ZM182.82,322.68h.91c.59,0,.94-.16,1.05-.48l.91-2.78h5.38l.91,2.78c.11.32.53.48,1.28.48h1c.76,0,1.14-.17,1.14-.5,0-.12-.02-.26-.07-.41l-5.01-14.65c-.11-.32-.54-.48-1.3-.48h-1.19c-.74,0-1.18.16-1.3.48l-5.01,14.65c-.06.21-.09.35-.09.41,0,.33.46.5,1.39.5ZM186.67,316.41l1.34-4.06c.11-.26.19-.54.24-.85.05-.31.09-.51.1-.6h.09c.12.67.24,1.15.34,1.46l1.3,4.06h-3.42ZM208.53,322.63h4.88c2.35,0,4.16-.69,5.41-2.06,1.25-1.38,1.88-3.35,1.88-5.91s-.63-4.54-1.88-5.91c-1.25-1.38-3.06-2.06-5.41-2.06h-4.88c-.32,0-.55.07-.7.22s-.22.38-.22.69v14.13c0,.32.07.55.22.69.14.14.38.22.7.22ZM211.15,319.64v-9.98h2.26c1.22,0,2.13.43,2.76,1.28.62.85.93,2.09.93,3.71s-.31,2.86-.93,3.71c-.62.85-1.54,1.28-2.76,1.28h-2.26ZM234.85,322.63h8.02c.24,0,.42-.09.52-.27.11-.18.16-.47.16-.87v-.71c0-.39-.05-.68-.16-.87-.11-.18-.28-.27-.52-.27h-5.42v-3.69h4.79c.24,0,.42-.09.52-.27.11-.18.16-.47.16-.87v-.71c0-.39-.05-.68-.16-.87-.11-.18-.28-.27-.52-.27h-4.79v-3.3h5.4c.24,0,.42-.09.52-.27s.16-.47.16-.87v-.71c0-.39-.05-.68-.16-.87s-.28-.27-.52-.27h-8c-.32,0-.55.07-.7.22s-.22.38-.22.69v14.13c0,.32.07.55.22.69.14.14.38.22.7.22ZM264.41,318.82h.66c.39,0,.7-.14.91-.43l2.8-5.01c.2-.33.36-.63.5-.89l.09.02v9.44c0,.49.46.73,1.37.73h.66c.91,0,1.37-.24,1.37-.73v-14.59c0-.49-.46-.73-1.37-.73h-1.19c-.73,0-1.21.21-1.44.62l-3.85,6.75-.2.39-.23-.39-3.78-6.75c-.23-.41-.71-.62-1.44-.62h-1.21c-.91,0-1.37.24-1.37.73v14.59c0,.49.46.73,1.37.73h.66c.91,0,1.37-.24,1.37-.73v-9.44l.09-.02c.14.26.3.55.5.89l2.8,5.01c.21.29.52.43.91.43ZM290.82,322.68h.78c.91,0,1.37-.24,1.37-.73v-6.91l4.54-7.38c.14-.23.21-.42.21-.57,0-.3-.48-.46-1.44-.46h-.82c-.74,0-1.2.14-1.37.43l-2.8,4.88-2.78-4.88c-.17-.29-.62-.43-1.37-.43h-.98c-.97,0-1.46.15-1.46.46,0,.12.08.31.23.57l4.54,7.32v6.97c0,.49.46.73,1.37.73Z"/>
</svg>