<?xml version="1.0" encoding="UTF-8"?>
<svg id="Layer_1" data-name="Layer 1" xmlns="http://www.w3.org/2000/svg" viewBox="0 0 1000 896.25" width="1000" height="896.25">
  <defs>
    <style>
      .cls-1 {
        fill: #c39a2d;
      }
    </style>
  </defs>
  <path class="cls-1" d="M548.92,325.47c-10.92,37.02-54.59,53.47-88.36,36-35.1-17.58-46.91-63.05-24.1-95.15,8.05-11.15,19.72-19.68,32.98-23.22,2.56-.78,5.23-1.14,7.82-1.57-2.44,1.09-4.91,1.91-7.2,3.21-25.07,12.26-39.65,40.55-33.5,67.94,4,18.77,17.81,34.89,35.71,41.84,28.98,11.53,61.72-2.01,76.64-29.06h0ZM704.15,437.18c-3.3-13.01-9.12-24.68-16.7-35.81-29.35-43.09-101.66-125.07-139.22-164.83l-70.43-77.57c-.67-.7-2.36-1.03-2.87-.5-.58.6-.45,1.85.42,2.8,42.21,46.06,121.47,136.57,162.01,184.28,15.63,18.4,30.87,36.84,45.12,56.22,12,16.33,18.65,34.81,20.91,55l3.03,27c2.73,14.62,8.11,27.89,16.11,40.42,5.75,8.22,11.41,16.22,19.33,22.72-20.1-25.91-31.8-48.04-33.96-81.28-.64-9.75-1.35-19.01-3.75-28.46ZM483.83,195.34l2.44-1.97,31.16,36.64,8.23-1.89c1.09-.3,2.66,1.15,2.66,2.28,0,3.91-2.86,1.46-7.64,4.04l23.7,29.6,9.27-2.24c1-.24,2.34,1.47,2.13,2.62-.59,3.2-4.12.68-8.85,3.17l24.36,29.28,10.23-2.78c1.08-.29,2.84,1.33,2.86,2.49.07,4.33-5.02,1.65-10.29,4.86l43.84,49.48,33.7,37.91c7.81,8.79,14.3,17.87,20.16,27.99,10.03,17.33,13.95,36.41,10.63,56.26-1.66,9.92-4.67,19.09-7.5,28.76l-7.32,25.02c-5.08,21.02-6.31,47.54,2.98,66.96,17.01,35.55,53.61,58.42,93.44,54.95,38.31-3.34,70.1-26.2,90.87-57.64l.65-.98c.15-.22-.25-.61-.48-.46l-1.41.99-7.77,3.36c-8.39,3.63-17.33,3.22-25.98.46l-4.75-1.52c-1.13-.6-.17-.88.74-.57,21.53,5.71,46.72-4.72,52.56-26.64,4.74-17.77.75-36.84-6.58-53.7-16.82-38.67-49.2-66.75-87.27-83.72-10.06-4.49-18.63-10.52-26.88-17.6l-14.96-14.28-10.72-10.57-.87.79,19.83,24.04.6,3.7,20.91,23.31,65.45,73.95,1.06,1.23c.17.2.52-.06,1.1-.49,1.1-1.23,4.48-3.1,5.78-1.28l4.08,5.75c1.47,2.08.21,3.52-1.47,4.68l-51.8,35.74c-1.69,1.17-3.66.04-4.48-1.32l-3.37-5.55c-.86-1.42.16-3.4,1.4-4.23l8.93-6-35.17-56.12-46.18-71.74-12.34-18.41-59.56-67.71-76.56-83.58-43.27-46.58,16.35-11.94-15.39-15.61,3.9-3.14c12.57,12.5,24.65,25.27,36.93,38.29l37.07,39.33,53.1,56.87,50.78,54.97,43.52,46.26c7.32,7.78,15.74,13.86,24.79,19.3l14.2,6.79c22.86,10.93,43.69,25.31,60.21,44.63,20.2,23.63,37.36,56.67,32.69,88.03-1.73,10.19-5.95,19.11-13.57,25.89l-13.94,21.53c-34.26,44.88-97.4,61.89-145.43,29.08-18.69-12.77-33.42-30.91-41.77-52.05-6.6-16.72-7.91-34.39-6.11-52.09,1.31-12.81,4.7-24.52,8.23-36.78l6.94-24.15c3.72-16.47,1.56-32.91-6.88-47.56l-17.26-26.7c-13.07-20.21-28.11-38.4-42.83-57.48l-30.18-36.3c-2.32.34-2.31,1.08-3.4,3.21l-6.62,3.78c-.61,3.9-3.13,7.03-6.38,8.06-3.77,1.19-7.66-.42-9.97-3.5-7.17-9.58-4.12-22.3,2.92-24.09,6.93-1.76,8.06,4.42,11.96,3.63,2.85-.58,4.26.93,7.07,2.4l-22.48-27.51c-2.5.05-2.82,1.59-4.34,3.4-1.62,1.92-4.79,3.25-7.35,4.5-.47,3.94-2.31,7.11-5.58,8.54-3.57,1.57-7.51.73-10.27-2.29-5.2-5.7-6.47-14.45-2.49-21.16,1.42-2.4,4.19-3.97,6.63-4.1,2.64-.14,5.06,1.38,6.96,3.51l4.02.39c2.6,1.58,5.14,2.98,8.47,2.55l-22.9-29.24c-2.68.43-4.5,2.08-6.09,4.47l-6.33,3.52c-.62,6.41-6.05,11.21-12.39,9.51-3.87-1.04-6.18-4.55-7.84-7.97-2.05-8.06.23-19.81,7.58-20.42,3.08-.26,5.94,1.27,8.09,3.83l5.15.26c2.34,2.01,4.55,3.04,8.08,2.31l-14.15-16.76c-4.58-5.42-9.32-10.22-13.63-15.73M705.42,369.46l11.19,13.34c.31.37,1.32-.33,1.48-.8l-12.67-12.55ZM524.59,201.68l13.81-10.42-3.05-3.64-14.67,9.93,3.91,4.13ZM534.98,212.18l13.35-10.65-8.58-8.92c-4.37,4.11-8.56,7.28-13.57,10.38l8.8,9.19ZM551.74,229.85l13.23-10.88-13.71-14.19-12.98,11.15,13.47,13.91ZM570.77,250.24l13.4-10.88-15.55-16.45-13.65,10.6,15.8,16.73ZM587.64,268.6l13.54-10.86-13.34-14.41-13.76,10.6,13.55,14.67ZM598.6,280.75l13.8-11.13-7.72-7.91-13.8,10.54,7.72,8.5ZM611.16,293.93l14.05-10.95-10.39-11.07-13.82,11.27,10.17,10.75ZM625.75,309.66l14.07-10.77-11.65-12.47-14.02,10.88,11.6,12.37ZM639.64,325.1l14.97-11.22-12-11.99-14.27,10.74,11.3,12.47ZM654.49,341.33l11.66-8.93,3.53-2.56-12.61-13.03-14.47,11.51,11.89,13.02ZM670.71,359.39l15.51-11.43-14.48-15.28-14.7,11.48,13.66,15.24ZM686.8,377.67l15.75-12.18-13.76-14.42-15.48,11.66,13.49,14.94ZM702.03,394.39l13.35-10.72-12-13.91-13.97,11.03,12.62,13.6ZM712.54,406.03l14.22,18.99,5.39-3.16-6.12-7.81-15.26-19.23-4.19,3.35,5.96,7.86ZM801.22,531.91l-34.75-48.69-39.34-54.67-5,1.8,11.28,17.9,57.19,90.93,10.62-7.27ZM813.71,523.45l-60.18-75.4-19.18-23.56-5.35,3.09,31.86,44.75,41.59,58.85,11.27-7.73ZM740.78,416.35l-4.92,6.77,30.84,37.91,48.35,61.55,12.42-8.45-50.17-56.79-36.52-40.98ZM718.58,388.63l-6.14,4.87,21.37,26.95,4.05-5.38c.71-.83.47-2.79-.32-3.74l-18.96-22.71ZM496.24,230.01c-1.13-1.21-3.43-1.87-4.83-1.37-5.22,1.87-6.22,12.51.23,19.15,1.29,1.33,3.83,1.79,5.39,1.22,4.69-1.7,5.71-12.08-.79-19.01ZM524.45,263.77c-.99-1.06-3.42-1.83-4.62-1.47-5.04,1.52-6.41,12.54.69,19.13.84.78,3.04,1.37,4.03,1.18,4.92-.92,6.58-11.74-.11-18.85ZM548.31,294.43c-4.84,1.73-6.14,13.29,1.47,19.47,2.26,1.83,5.58,1.08,6.79-1.83,3.89-9.34-3.71-19.26-8.26-17.64ZM520.95,165.41l-40.23-39.16c-26.38,3.8-32.14,27.18-32.14,27.18l35.25,41.91,2.44-1.97-32.87-40.69c6.07-18.81,27.32-22.25,27.32-22.25l36.33,38.12M519.8,129.59c.35.71.44,1.59.77,2.6,0,0-.28,6.62-7.46,5.97l-5.3,6.96-12.6,17.04s-3.4.78-2.55-2.68l12.6-17.04v-3.26l2.11-4.95s-3.87-13.26,9.34-7.96c0,0,1.72.64,3.07,3.34ZM515.66,128.42c-1.97-1.04-5.14-1.03-5.95.5-.81,1.53-.17,4.41,1.8,5.45,1.97,1.04,5.36.91,6.17-.62.81-1.53-.05-4.29-2.02-5.33ZM536.64,144.19c.35.71.44,1.59.77,2.6,0,0-.28,6.62-7.46,5.97l-5.3,6.96-12.6,17.04s-3.4.78-2.55-2.68l12.6-17.04v-3.26l2.11-4.95s-3.28-11.62,9.34-7.96c0,0,1.72.64,3.07,3.34ZM532.5,143.02c-1.97-1.04-5.14-1.03-5.95.5-.81,1.53-.17,4.41,1.8,5.45,1.97,1.04,5.36.91,6.17-.62.81-1.53-.05-4.29-2.02-5.33ZM561.7,575.57l46.52.07v2.25s-46.53-.07-46.53-.07v-2.25ZM561.72,565.81l46.49.15v-2.09s-46.49-.15-46.49-.15v2.09ZM561.78,589.52l46.43.05v-2.15s-46.43-.05-46.43-.05v2.15ZM252.6,577.82l46.52.07v-2.25s-46.52-.07-46.52-.07v2.25ZM252.62,565.81l46.49.15v-2.09s-46.49-.15-46.49-.15v2.09ZM252.69,589.52l46.43.05v-2.15s-46.43-.05-46.43-.05v2.15ZM293.91,532.44c23.6,0,43.56-14.7,43.56-38.02,0-19.06-12.8-30.04-30.85-40.57-15.07-8.8-24.5-16.06-24.5-28.04,0-8.44,5.08-13.16,11.8-13.16,13.16,0,25.68,19.06,30.49,32.85.09.27.18.36.45.36s.45-.09.45-.45l-2.63-40.75c0-.36-.18-.45-.45-.45-.36,0-.45.18-.45.45.09.91.18,1.91.18,3.09,0,5.44-1.72,7.8-6.17,7.8-5.72,0-11.8-3.81-22.69-3.81-16.88,0-28.04,10.8-28.04,24.68,0,17.24,13.43,26.86,32.67,38.57,13.25,8.08,20.15,14.7,20.15,29.22,0,15.88-12.07,26.5-28.95,26.5-15.34,0-27.95-10.25-27.95-21.69,0-6.35,3.27-8.98,9.17-10.53,7.71-2,12.07-5.81,12.07-13.79,0-6.17-4.27-11.25-11.89-11.25-9.89,0-17.51,9.26-17.51,23.14,0,18.33,15.52,35.85,41.11,35.85ZM369.67,531.17h39.93c.27,0,.45-.18.45-.45s-.18-.45-.45-.45h-1.18c-5.72,0-7.62-4.63-7.62-12.52v-32.4c0-3.18,1.63-3.18,4.36-3.18h9.17l32.94,48.73c.09.18.36.27.54.27h33.58c.27,0,.45-.18.45-.45s-.18-.45-.45-.45h-.18c-5.26,0-13.89-11.62-18.51-17.97l-24.32-33.76c14.25-5.17,24.05-16.06,24.05-32.94,0-28.13-27.23-33.03-47.37-33.03-6.17,0-19.78.45-25.41.45h-19.97c-.27,0-.45.18-.45.45s.18.45.45.45h1.18c5.72,0,7.62,4.63,7.62,12.52v91.3c0,7.9-1.91,12.52-7.62,12.52h-1.18c-.27,0-.45.18-.45.45s.18.45.45.45ZM414.14,481.26h-8.8c-2.9,0-4.54-.64-4.54-3.99v-52.73c0-7.08,4.08-11.07,12.43-11.07h2.63c13.25,0,22.87,12.34,22.87,33.58s-10.25,34.21-24.59,34.21ZM503.87,531.17h39.93c.27,0,.45-.18.45-.45s-.18-.45-.45-.45h-1.18c-5.72,0-7.62-4.63-7.62-12.52v-91.3c0-7.9,1.91-12.52,7.62-12.52h1.18c.27,0,.45-.18.45-.45s-.18-.45-.45-.45h-39.93c-.27,0-.45.18-.45.45s.18.45.45.45h1.18c5.72,0,7.62,4.63,7.62,12.52v91.3c0,7.9-1.91,12.52-7.62,12.52h-1.18c-.27,0-.45.18-.45.45s.18.45.45.45ZM576.84,531.17h33.76c.27,0,.45-.18.45-.45s-.18-.45-.45-.45h-.18c-4.54,0-14.34-11.8-19.42-17.97l-36.66-44.83,18.97-26.95c10.44-14.79,22.51-26.59,31.49-26.59.18,0,.36-.18.36-.45s-.18-.45-.45-.45h-38.84c-.27,0-.45.18-.45.45s.18.45.45.45h.27c6.63,0,11.53,4.72,11.53,11.98,0,4.17-1.63,9.17-5.45,14.61l-30.95,44.01c-.45.64-.54.82-.54,1s.09.36.45.82l34.76,44.29c.36.45.55.54.91.54ZM333.89,220.71c-2.1,3.94-4.97,7.47-8.37,10.37-3.09,2.64-6.4,5.62-10.66,5.89,3.58-3.42,7.73-6.21,11.2-9.75,5.04-5.14,9.08-14.31,4.73-21.14-3.04-4.75-9.58-5.84-13.64-9.75-.81-.78-1.53-1.71-1.78-2.81-.66-2.94,2.59-7.39,5.62-7.64,3.79-.31,8.37,4.28,10.56,6.93,6.14,7.41,6.75,19.66,2.35,27.9ZM330.6,198.49s-3.04-10.92-8.65-8.22c0,0-8.06,4.6,8.65,8.22ZM311.51,223.73c-1.27,4.81-2.48,10.12-7.39,13.76,1.13-5.9,3.54-11.71,4.42-17.62,1.28-8.6-2.45-20-14.16-22.6-8.16-1.81-17.12,2.45-25.74,2.2-1.72-.05-3.47-.3-4.8-1.08-3.57-2.09-3.81-8.66-.38-11.29,4.3-3.3,14.18-2.87,19.33-2.26,14.42,1.7,26.7,12.13,29.12,22.97,1.16,5.19.99,10.62-.4,15.92ZM287,190.66s-13.97-7.31-18.23-.42c0,0-5.45,10.53,18.23.42ZM294.01,241.33c-2.78-5.33-4.5-11.37-7.48-16.56-4.34-7.54-14.34-14.16-25.13-8.93-7.52,3.65-11.9,12.55-18.81,17.71-1.38,1.03-2.91,1.92-4.43,2.14-4.1.58-8.36-4.42-7.31-8.62,1.32-5.26,9.34-11.05,13.75-13.77,12.36-7.62,28.46-7.07,37.09-.07,4.13,3.35,7.37,7.71,9.57,12.73,2,4.56,4.34,9.48,2.75,15.38ZM251.5,215.24s-15.49,2.95-14.55,10.99c0,0,2.27,11.64,14.55-10.99ZM655.12,626.18c-35.54,73.43-104.91,124.81-184.81,140.21-43.56,8.39-88.38,5.84-131.1-7-100.92-30.32-179.78-110.83-205.65-213.35-14.81-58.7-10.44-114.02,13.37-169.6,15.75-36.77,40.26-68.76,71.83-93.2,23.95-18.55,52.81-32.89,83.54-36.64,0,0,.86-.14,2.36-.31l4.8-.22-.04-.18c.6-.04,1.23-.07,1.88-.1l.03.14,6.33-.21c.64.01,1.28.03,1.94.06v.08s5.49.3,5.49.3c3.05.31,6.21.79,9.37,1.53,25.73,5.4,46.32,23.01,50.67,48.95l-.84,1.34c-.21.34-1.32-.07-1.64-.34l-10.7-8.91c-10.28-7.38-23.28-9.34-35.47-7.7,8.28,2.39,15.76,6.98,18.21,15.24,2.31,7.76-1.38,15.97-6.86,21.38-10.47-.77-19.68,1.66-29.16,5.22-16.82,6.31-33.67,4.64-43.09-11.71-4.29,2.22-7.92,4.45-11.82,7.36-24.13,18.01-44.06,40.67-58.5,67.32-18.52,34.19-28.46,72.09-29.29,111.16-1.65,77.83,29.96,151.6,80.85,209.82,59.77,42.15,130.32,62.4,203.45,52.14,51.16-7.65,99.17-29.37,138.1-63.29,23.04-19.79,41.07-43.51,56.74-69.47ZM250.73,701.85c-16.66-20.67-31.58-41.53-43.56-65.13-17.56-34.61-28.78-71.67-32.35-110.49-4.76-48.97,4.69-98.19,28.05-141.42,16.88-31.23,41.18-57.39,71.1-76.71,1.65-1.07,3.53.03,4.17,1.02,5.68,8.95,15.69,13.5,26.36,12.75,13.75-.98,25.67-9.77,41.26-8.24,5.35-10.05,4.04-20.43-5.64-25.94-6.08-3.46-12.47-4.21-19.97-4.85,19.1-10.88,43.39-10.27,59.6,5.84-3.82-11.03-10.99-20.17-21.01-26.64-22.03-14.21-51.82-12.5-76.46-4.21-49.96,16.82-90.45,57.31-114.86,103.46-25.7,48.58-34.58,104.19-25.8,158.55,11.75,71.7,51.86,137.04,109.12,182.02ZM354.39,318.21c13.45,3.62,32.04,9.53,45.18,14.23-.73-3.79-2.3-5.93-4.17-8.4l-21.47-26.77c-4.08-1.35-11.09-.59-12.5,3.68-1.16,3.5-.34,8.28-2.61,10.94l-4.43,6.31ZM339.18,582.95h1.32c.79,0,1.4-.29,1.82-.87l5.61-10.03c.39-.67.73-1.26,1-1.78l.18.05v18.87c0,.97.91,1.46,2.73,1.46h1.32c1.82,0,2.73-.49,2.73-1.46v-29.17c0-.97-.91-1.46-2.73-1.46h-2.37c-1.46,0-2.42.41-2.87,1.23l-7.7,13.49-.41.78-.46-.78-7.57-13.49c-.46-.82-1.41-1.23-2.87-1.23h-2.42c-1.82,0-2.73.49-2.73,1.46v29.17c0,.97.91,1.46,2.73,1.46h1.32c1.82,0,2.73-.49,2.73-1.46v-18.87l.18-.05c.27.52.61,1.11,1,1.78l5.61,10.03c.43.58,1.03.87,1.82.87ZM396.25,590.93c4.19,0,7.44-.96,9.75-2.89,2.31-1.93,3.46-4.64,3.46-8.14v-19.87c0-.97-.91-1.46-2.73-1.46h-1.5c-1.82,0-2.73.49-2.73,1.46v19.42c0,1.61-.59,2.93-1.76,3.97-1.17,1.03-2.67,1.55-4.49,1.55s-3.31-.52-4.47-1.55c-1.16-1.03-1.73-2.35-1.73-3.97v-19.42c0-.97-.91-1.46-2.74-1.46h-1.55c-1.82,0-2.73.49-2.73,1.46v19.87c0,3.49,1.15,6.21,3.46,8.14,2.31,1.93,5.56,2.89,9.75,2.89ZM445.16,590.93c1.79,0,3.46-.33,5.01-1s2.82-1.75,3.81-3.24c.99-1.49,1.48-3.4,1.48-5.74,0-1.91-.4-3.49-1.21-4.72-.81-1.23-1.76-2.17-2.85-2.83-1.09-.65-2.51-1.34-4.24-2.07-1.18-.52-2.08-.93-2.69-1.25s-1.12-.74-1.55-1.25c-.43-.52-.64-1.17-.64-1.96,0-.67.31-1.26.93-1.78.62-.52,1.72-.78,3.31-.78,1.18,0,2.32.18,3.42.55.24.09.54.21.89.36.35.15.6.23.75.23.33,0,.7-.23,1.09-.71.39-.47.73-1.03,1-1.66.27-.64.41-1.17.41-1.6,0-.49-.33-.97-1-1.46-.73-.52-1.72-.93-2.99-1.25-1.26-.32-2.67-.48-4.22-.48-1.88,0-3.65.33-5.29.98-1.64.65-2.97,1.67-3.99,3.05-1.02,1.38-1.53,3.11-1.53,5.17,0,2.49.55,4.41,1.64,5.77,1.09,1.35,2.6,2.48,4.51,3.4l2.1.91c1.73.7,2.99,1.33,3.76,1.89.77.56,1.16,1.33,1.16,2.3,0,1.19-.42,2.01-1.25,2.48-.84.47-1.85.71-3.03.71-1.06,0-1.99-.14-2.78-.41-.79-.27-1.67-.65-2.64-1.14-.67-.36-1.09-.55-1.28-.55-.3,0-.68.24-1.14.73-.46.49-.85,1.05-1.19,1.69-.33.64-.5,1.19-.5,1.64,0,.58.43,1.16,1.28,1.73.91.67,2.17,1.22,3.78,1.64,1.61.42,3.49.64,5.65.64ZM482.85,590.7h1.6c1.82,0,2.73-.5,2.73-1.5v-29.17c0-1-.91-1.5-2.73-1.5h-1.6c-1.82,0-2.73.5-2.73,1.5v29.17c0,1,.91,1.5,2.73,1.5ZM528.11,590.93c1.43,0,2.96-.14,4.6-.43,1.64-.29,2.96-.72,3.97-1.3,1.06-.61,1.6-1.31,1.6-2.1,0-.3-.13-.78-.39-1.44-.26-.65-.59-1.24-1-1.76-.41-.52-.84-.78-1.3-.78-.18,0-.52.12-1,.37-.94.43-1.91.77-2.92,1.05-1,.27-2.19.41-3.55.41-5.2,0-7.79-3.46-7.79-10.39,0-3.43.65-6,1.94-7.7,1.29-1.7,3.27-2.55,5.95-2.55,1.28,0,2.37.11,3.28.32.91.21,1.69.46,2.33.73.64.27,1,.41,1.09.41.36,0,.78-.27,1.25-.8.47-.53.87-1.14,1.21-1.82.33-.68.5-1.24.5-1.66,0-.52-.4-1-1.19-1.46-.88-.52-2.11-.93-3.69-1.25-1.58-.32-3.13-.48-4.65-.48-10.15,0-15.22,5.41-15.22,16.23,0,5.62,1.22,9.76,3.67,12.42,2.44,2.66,6.22,3.99,11.33,3.99ZM267.56,645.35h1.82c1.18,0,1.88-.32,2.1-.96l1.82-5.56h10.76l1.82,5.56c.21.64,1.06.96,2.55.96h2.01c1.52,0,2.28-.33,2.28-1,0-.24-.05-.52-.14-.82l-10.03-29.31c-.21-.64-1.08-.96-2.6-.96h-2.37c-1.49,0-2.36.32-2.6.96l-10.03,29.31c-.12.43-.18.7-.18.82,0,.67.93,1,2.78,1ZM275.26,632.82l2.69-8.11c.21-.52.37-1.09.48-1.71.11-.62.17-1.03.2-1.21h.18c.24,1.34.47,2.31.68,2.92l2.6,8.11h-6.84ZM330.73,645.62c1.43,0,2.96-.14,4.6-.43,1.64-.29,2.96-.72,3.97-1.3,1.06-.61,1.6-1.31,1.6-2.1,0-.3-.13-.78-.39-1.44-.26-.65-.59-1.24-1-1.76-.41-.52-.84-.78-1.3-.78-.18,0-.52.12-1,.37-.94.43-1.91.77-2.92,1.05-1,.27-2.19.41-3.55.41-5.2,0-7.79-3.46-7.79-10.39,0-3.43.65-6,1.94-7.7,1.29-1.7,3.27-2.55,5.95-2.55,1.28,0,2.37.11,3.28.32.91.21,1.69.46,2.33.73.64.27,1,.41,1.09.41.36,0,.78-.27,1.25-.8.47-.53.87-1.14,1.21-1.82.33-.68.5-1.24.5-1.66,0-.52-.4-1-1.19-1.46-.88-.52-2.11-.93-3.69-1.25-1.58-.32-3.13-.48-4.65-.48-10.15,0-15.22,5.41-15.22,16.23,0,5.62,1.22,9.76,3.67,12.42,2.44,2.66,6.22,3.99,11.33,3.99ZM365.64,645.35h1.82c1.18,0,1.88-.32,2.1-.96l1.82-5.56h10.76l1.82,5.56c.21.64,1.06.96,2.55.96h2.01c1.52,0,2.28-.33,2.28-1,0-.24-.05-.52-.14-.82l-10.03-29.31c-.21-.64-1.08-.96-2.6-.96h-2.37c-1.49,0-2.36.32-2.6.96l-10.03,29.31c-.12.43-.18.7-.18.82,0,.67.93,1,2.78,1ZM373.35,632.82l2.69-8.11c.21-.52.37-1.09.48-1.71.11-.62.17-1.03.2-1.21h.18c.24,1.34.47,2.31.68,2.92l2.6,8.11h-6.84ZM417.06,645.26h9.75c4.71,0,8.32-1.37,10.83-4.12,2.51-2.75,3.76-6.69,3.76-11.83s-1.25-9.08-3.76-11.83c-2.51-2.75-6.12-4.13-10.83-4.13h-9.75c-.64,0-1.1.14-1.39.43s-.43.75-.43,1.39v28.26c0,.64.14,1.1.43,1.39.29.29.75.43,1.39.43ZM422.3,639.29v-19.96h4.51c2.43,0,4.27.85,5.52,2.55,1.25,1.7,1.87,4.18,1.87,7.43s-.62,5.73-1.87,7.43c-1.25,1.7-3.09,2.55-5.52,2.55h-4.51ZM469.7,645.26h16.04c.49,0,.84-.18,1.05-.55.21-.36.32-.94.32-1.73v-1.41c0-.79-.11-1.37-.32-1.73-.21-.36-.56-.55-1.05-.55h-10.85v-7.38h9.57c.49,0,.84-.18,1.05-.55.21-.36.32-.94.32-1.73v-1.41c0-.79-.11-1.37-.32-1.73-.21-.36-.56-.55-1.05-.55h-9.57v-6.61h10.8c.49,0,.84-.18,1.05-.55.21-.36.32-.94.32-1.73v-1.41c0-.79-.11-1.37-.32-1.73s-.56-.55-1.05-.55h-16c-.64,0-1.1.14-1.39.43s-.43.75-.43,1.39v28.26c0,.64.14,1.1.43,1.39.29.29.75.43,1.39.43ZM528.82,637.65h1.32c.79,0,1.4-.29,1.82-.87l5.61-10.03c.39-.67.73-1.26,1-1.78l.18.05v18.87c0,.97.91,1.46,2.73,1.46h1.32c1.82,0,2.73-.49,2.73-1.46v-29.17c0-.97-.91-1.46-2.73-1.46h-2.37c-1.46,0-2.42.41-2.87,1.23l-7.7,13.49-.41.78-.46-.78-7.57-13.49c-.46-.82-1.41-1.23-2.87-1.23h-2.42c-1.82,0-2.73.49-2.73,1.46v29.17c0,.97.91,1.46,2.73,1.46h1.32c1.82,0,2.73-.49,2.73-1.46v-18.87l.18-.05c.27.52.61,1.11,1,1.78l5.61,10.03c.43.58,1.03.87,1.82.87ZM581.65,645.35h1.55c1.82,0,2.73-.49,2.73-1.46v-13.81l9.07-14.77c.27-.46.41-.83.41-1.14,0-.61-.96-.91-2.87-.91h-1.64c-1.49,0-2.4.29-2.73.87l-5.61,9.75-5.56-9.75c-.33-.58-1.25-.87-2.73-.87h-1.96c-1.94,0-2.92.3-2.92.91,0,.24.15.62.46,1.14l9.07,14.63v13.95c0,.97.91,1.46,2.73,1.46Z"/>
</svg>